<svg xmlns="http://www.w3.org/2000/svg" viewBox="0 0 380 80" width="380" height="80">
  <title>Borjie</title>
  <defs>
    <linearGradient id="spine" x1="40" y1="16" x2="40" y2="64" gradientUnits="userSpaceOnUse">
      <stop offset="0%" stop-color="#FFE2B4"/>
      <stop offset="40%" stop-color="#F2C27E"/>
      <stop offset="100%" stop-color="#A26A2A"/>
    </linearGradient>
    <linearGradient id="upper" x1="40" y1="22" x2="40" y2="38" gradientUnits="userSpaceOnUse">
      <stop offset="0%" stop-color="#FFF1CF"/>
      <stop offset="100%" stop-color="#E5B26B"/>
    </linearGradient>
    <linearGradient id="lower" x1="40" y1="42" x2="40" y2="62" gradientUnits="userSpaceOnUse">
      <stop offset="0%" stop-color="#F2C27E"/>
      <stop offset="100%" stop-color="#7A4F1E"/>
    </linearGradient>
    <linearGradient id="hi" x1="40" y1="18" x2="40" y2="30" gradientUnits="userSpaceOnUse">
      <stop offset="0%" stop-color="#FFF8E6" stop-opacity="0.85"/>
      <stop offset="100%" stop-color="#FFF8E6" stop-opacity="0"/>
    </linearGradient>
    <radialGradient id="bloom" cx="40" cy="40" r="22" gradientUnits="userSpaceOnUse">
      <stop offset="0%" stop-color="#F7CC85" stop-opacity="0.32"/>
      <stop offset="65%" stop-color="#E5B26B" stop-opacity="0.06"/>
      <stop offset="100%" stop-color="#E5B26B" stop-opacity="0"/>
    </radialGradient>
    <style>
      .wm{font-family:'Fraunces','GT Alpina','Source Serif 4',Georgia,serif;font-weight:600;font-size:48px;letter-spacing:-0.018em;fill:#F5EBD8}
      .dot{fill:#E5B26B}
    </style>
  </defs>
  <g>
    <circle cx="40" cy="40" r="20" fill="url(#bloom)"/>
    <rect x="22" y="20" width="8" height="40" rx="2" fill="url(#spine)"/>
    <path d="M30 22 H46 a8 8 0 0 1 8 8 v3 a8 8 0 0 1 -8 8 H30 z" fill="url(#upper)"/>
    <rect x="30" y="40" width="20" height="1" fill="#E5B26B" opacity="0.9"/>
    <path d="M30 43 H48 a10 10 0 0 1 10 10 v0 a10 10 0 0 1 -10 10 H30 z" fill="url(#lower)"/>
    <g stroke="#FFE2B4" stroke-width="0.5" opacity="0.35">
      <line x1="32" y1="48" x2="52" y2="48"/>
      <line x1="32" y1="53" x2="54" y2="53"/>
      <line x1="32" y1="58" x2="52" y2="58"/>
    </g>
    <rect x="22.4" y="20.4" width="7.2" height="6" rx="1.6" fill="url(#hi)"/>
    <path d="M30 43 H48 a10 10 0 0 1 10 10 v0 a10 10 0 0 1 -10 10 H30" fill="none" stroke="#7A4F1E" stroke-width="0.6" opacity="0.55"/>
  </g>
  <text class="wm" x="92" y="56">Bor</text>
  <circle class="dot" cx="176" cy="38" r="2.6"/>
  <text class="wm" x="183" y="56">jie</text>
</svg>
